<?xml version="1.0" encoding="utf-8"?>
<!DOCTYPE svg PUBLIC "-//W3C//DTD SVG 1.0//EN" "http://www.w3.org/TR/2001/REC-SVG-20010904/DTD/svg10.dtd">
<svg version="1.0" xmlns="http://www.w3.org/2000/svg" width="762px" height="309px" viewBox="0 0 762 309" preserveAspectRatio="xMidYMid meet">
 <g fill="#f8fbfc">
  <path d="M83.5 294.6 c-4.1 -1.8 -12.3 -10.7 -18.4 -20 -12.6 -19.4 -17.9 -47.1 -13.6 -70.7 2.1 -11.3 3.9 -16.6 9.6 -28.4 13.8 -28.7 14.8 -58.3 2.8 -87 l-3.1 -7.6 -8.7 -4.4 c-11.5 -5.8 -16.6 -9.6 -20.1 -15.2 -3.4 -5.3 -4 -11.5 -1.5 -16.2 2.3 -4.5 11.6 -12.3 18.7 -15.8 12.6 -6.2 31.3 -11.2 51.3 -13.8 16.2 -2.1 51 -2.1 66.9 0 42.8 5.7 71.4 20.4 71.6 36.8 0 7.7 -7.3 16.1 -20 22.6 -7 3.7 -8.3 4.8 -10.4 8.9 -7.6 15 -11.1 32.4 -10.2 50.2 0.7 15.1 3.3 24.8 10.5 39.5 10.5 21.4 12.6 30.4 11.8 51.9 -0.5 15.8 -2.6 25.2 -8.1 37.2 -5.6 12 -19.9 31.5 -21.8 29.6 -0.4 -0.4 -0.4 -3.2 0.2 -6.1 1.4 -7.2 1.3 -18.4 -0.2 -21.6 -2.5 -5.5 -9 -3.8 -13.3 3.6 -1.6 2.8 -2 5.3 -2.1 13.4 0 10.2 -1.2 14.5 -3.9 14.5 -3.4 0 -9.4 -28.4 -10.2 -48 l-0.6 -14.6 2.7 -1.2 c3 -1.3 3.2 -3.1 1.1 -7.2 -1.4 -2.6 -1.3 -3.3 0.1 -6.9 2 -5.2 0.7 -9.8 -4.2 -14.1 -3.8 -3.3 -5.4 -3.6 -10.3 -1.9 -2.8 1 -3.4 0.8 -6.6 -2 -4.2 -3.7 -6.8 -3.9 -8.9 -0.9 -2.9 4.1 -1.3 13 3.6 19.9 1 1.5 2.3 6.1 2.8 10.5 0.6 4.4 1.8 10.4 2.7 13.4 2.4 7.8 2.3 27.6 0 35.1 -1.8 5.7 -7 14.9 -8.4 14.9 -6.3 -0.1 -8.9 -24.4 -5.9 -54.7 2 -20.2 1 -31.1 -3.6 -37.5 -1.7 -2.5 -2.6 -2.8 -7.2 -2.8 -6.4 0 -9.6 2.2 -11.9 7.8 -4.1 10.3 -2.7 25.7 4.5 48.2 3.8 12 4 12.9 3.6 23.5 -0.5 15.5 -3.8 21.2 -8.7 14.9 -3.9 -5 -5.6 -12.2 -5.3 -22.9 0.3 -12.7 -1.1 -18.7 -5 -22 -3.6 -3 -5.3 -3.1 -9.5 -0.5 -4.2 2.5 -6.2 5.7 -6.9 11.2 -0.6 3.9 -0.1 6.1 2.9 13.5 3.9 9.6 6.3 20.5 5 22.7 -0.7 1.2 -1.3 1.2 -3.8 0.2z m54.5 -14.8 c3.4 -7.9 3.9 -22.8 1.2 -35 -1.1 -5.1 -2.4 -10.8 -2.7 -12.6 -0.4 -1.8 -0.9 -3.2 -1 -3 -1.1 1 -3.6 29.1 -3.1 34.3 0.3 3.3 0.8 9.5 1.2 13.8 0.3 4.2 1 7.7 1.4 7.7 0.4 0 1.8 -2.4 3 -5.2z m51.3 -23.5 c2.8 -3.1 3 -6.6 0.7 -9.6 -4 -5.1 -12 -2.3 -12 4.1 0 5.9 7.6 9.5 11.3 5.5z m-99.8 -16.8 c3.2 -3.1 3.2 -6.9 0.1 -10 -2.1 -2.1 -2.9 -2.3 -5.7 -1.5 -3.9 1.1 -4.9 2.5 -4.9 6.7 0 2.2 0.8 3.8 2.6 5.2 3.4 2.7 5 2.6 7.9 -0.4z m42.5 -44.7 c1.4 -1.8 2.8 -2.3 6.4 -2.2 l4.6 0.1 0 -3.6 c0 -2 0.9 -4.9 2 -6.6 1.3 -2 2 -4.7 2 -8.2 l0 -5.3 19.5 0 19.5 0 0 -10 0 -10 -19.5 0 -19.5 0 -0.2 -21.2 -0.3 -21.3 -9.2 -0.1 -9.3 0 -0.2 21 -0.3 21.1 -19.7 0.3 -19.8 0.2 0 10 0 10 19.4 0 c13.6 0 19.7 0.3 20.2 1.2 0.4 0.6 0.7 6.9 0.7 14 0 7.6 0.3 12.8 0.9 12.8 0.5 0 1.8 -1 2.8 -2.2z m26.2 0.5 c2.3 -2 2.4 -8 0.1 -10.5 -1.8 -2 -5.4 -2.3 -8.3 -0.8 -3.6 1.9 -3.4 9.7 0.4 12.2 1.9 1.3 5.9 0.9 7.8 -0.9z m-36.7 -4.8 c3.7 -3.6 3.5 -9.7 -0.4 -13.6 -3.8 -3.8 -7.4 -3.8 -11.2 0 -6 6.1 -2.6 16.1 5.6 16.1 2.5 0 4.4 -0.8 6 -2.5z m38.5 -113 c35.9 -4.2 58.3 -13.9 60.6 -26.4 1.8 -9.4 -10.9 -18.8 -33.3 -24.6 -32.5 -8.5 -78.1 -8.1 -109.8 1 -27.5 7.9 -37.7 21.2 -24.8 32.5 9.3 8.2 32.1 15.4 56.3 17.9 13.8 1.4 37.6 1.2 51 -0.4z"/>
  <path d="M114.5 74 c-26.2 -2 -42.4 -7.5 -40.1 -13.5 0.8 -2.2 8 -5.4 16.8 -7.5 28.9 -6.7 77.7 -4.8 94.8 3.7 6.1 3.1 7 4.8 4 8 -6.3 6.9 -45 11.6 -75.5 9.3z"/>
  <path d="M269.6 292.5 c-5.5 -1.9 -6 -2.8 -4.2 -6.4 1.9 -3.5 2.7 -3.7 6.1 -1.5 2.9 1.9 6.4 1.5 7.9 -0.8 1.6 -2.7 -0.1 -4.6 -6.4 -7.1 -5.9 -2.4 -8 -5 -8 -10.2 0 -3.6 3.1 -8.9 6.1 -10.5 2.7 -1.5 13.2 -0.9 15.3 0.9 1.4 1.2 1.4 1.6 0 4.2 -1.6 3.2 -2.1 3.4 -5.8 1.9 -3 -1.1 -5.2 -0.5 -6 1.7 -0.9 2.2 0.8 3.8 5.2 5.1 2.2 0.7 5.1 2.3 6.5 3.6 2.2 2.1 2.7 3.4 2.7 7.4 0 5.8 -2.5 9.7 -7.6 11.8 -4.1 1.7 -6.8 1.7 -11.8 -0.1z"/>
  <path d="M680.8 292.5 c-5.3 -1.7 -6.1 -3.7 -3 -7.4 1.6 -2.1 1.8 -2.1 5 -0.6 5.2 2.7 10.2 0.3 8.6 -4 -0.3 -0.8 -3.2 -2.4 -6.4 -3.6 -6.3 -2.3 -8 -4.5 -8 -10.4 0 -9.4 8.4 -14.1 18.9 -10.4 3.6 1.3 3.6 1.1 1.5 5.5 -1.1 2.3 -2 3.1 -2.8 2.6 -3.4 -2.7 -8.6 -1.6 -8.6 1.7 0 1.3 1.6 2.5 5.4 4.1 3 1.2 6.1 2.9 7 3.9 4 4.4 2.7 13.5 -2.5 17.2 -3.9 2.7 -9.2 3.2 -15.1 1.4z"/>
  <path d="M322 292.2 c0 -0.8 10 -29.1 12 -33.9 0.8 -2 1.7 -2.3 5.9 -2.3 l4.9 0 6.1 17.3 c3.4 9.4 6.2 17.7 6.1 18.2 0 0.6 -1.9 1 -4.2 1 -3.9 0 -4.4 -0.3 -5.7 -3.2 -1.4 -3.2 -1.6 -3.3 -7.7 -3.3 l-6.2 0 -1.2 3.5 c-1.1 3.3 -1.4 3.5 -5.6 3.5 -2.4 0 -4.4 -0.4 -4.4 -0.8z m21 -14.6 c0 -1.8 -2.1 -7.9 -3.1 -9 -0.8 -0.9 -4 8.4 -3.2 9.7 0.8 1.3 6.3 0.8 6.3 -0.7z"/>
  <path d="M392.7 292.4 c-0.4 -0.4 -0.7 -8.8 -0.7 -18.6 l0 -17.8 4.8 0 4.7 0 7.5 10.5 c4.1 5.7 7.8 10.4 8.3 10.5 0.4 0 0.7 -4.7 0.7 -10.5 l0 -10.5 4.5 0 4.5 0 0 18.5 0 18.5 -4.3 0 c-4.2 0 -4.5 -0.2 -9.3 -6.7 -2.8 -3.8 -6.3 -8.7 -8 -11 -1.6 -2.4 -3.2 -4.3 -3.6 -4.3 -0.4 0 -0.9 4.8 -1 10.8 l-0.3 10.7 -3.5 0.3 c-2 0.2 -3.9 0 -4.3 -0.4z"/>
  <path d="M508.5 290.8 c-0.3 -1.3 -0.4 -9.5 -0.3 -18.3 l0.3 -16 4.4 0 4.4 0 0.1 14 0.1 14 5.3 0.3 c5.7 0.3 6.9 1.4 5.8 5.7 -0.6 2.4 -0.8 2.5 -10.1 2.5 -9 0 -9.5 -0.1 -10 -2.2z"/>
  <path d="M570.1 291.7 c-1.3 -0.6 -3.4 -2.5 -4.5 -4 -1.9 -2.5 -2.1 -4.5 -2.4 -17.3 l-0.3 -14.4 4.5 0 4.6 0 0 12.5 c0 11.2 0.2 12.7 2 14.5 1.1 1.1 2.9 2 4 2 1.1 0 2.9 -0.9 4 -2 1.8 -1.8 2 -3.3 2 -14.5 l0 -12.5 4.6 0 4.5 0 -0.3 14.6 -0.3 14.5 -4.2 4 c-3.9 3.6 -4.6 3.9 -10 3.9 -3.2 0 -6.9 -0.6 -8.2 -1.3z"/>
  <path d="M630.6 291.3 c-0.3 -1 -0.3 -9.2 -0.2 -18.3 l0.4 -16.5 4.3 0 4.4 0 0.3 16 c0.3 20.2 0.3 20.5 -4.8 20.5 -2.8 0 -4 -0.5 -4.4 -1.7z"/>
  <path d="M624 243.4 c-28.2 -3.5 -51.8 -13.8 -69.4 -30.5 -21.9 -20.7 -32.9 -47.9 -32.9 -81.4 0 -53.9 30 -96.5 78.8 -111.8 14.9 -4.7 22.9 -5.8 40 -5.8 16.3 0 29.9 1.5 46.9 5.1 4.9 1.1 9.5 2.5 10.2 3.1 1.1 0.9 1.4 6.1 1.4 25.9 0 13.5 -0.2 24.9 -0.4 25.1 -0.3 0.3 -2.9 0.2 -5.8 -0.1 l-5.3 -0.5 -0.6 -5.5 c-1.9 -16.7 -9.2 -28.4 -21.3 -34.1 -8.7 -4.1 -15.3 -5.2 -29.1 -4.6 -17.1 0.7 -28.6 5 -40.6 15.2 -14.3 12.2 -23.9 30.7 -28.4 54.5 -2.5 12.8 -2.5 40.6 -0.2 54 5.5 30.8 19.8 54 41.1 66.9 22 13.2 55 13 82 -0.6 5.4 -2.7 7.1 -3.2 7.7 -2.1 0.5 0.7 0.8 5.6 0.7 10.8 l-0.3 9.4 -4.5 1.3 c-11.7 3.5 -27.8 5.5 -47 5.8 -10.7 0.2 -21.1 0.1 -23 -0.1z"/>
  <path d="M398 240 c-8.5 -0.4 -19.9 -0.5 -25.2 -0.2 -5.6 0.3 -9.8 0.1 -9.8 -0.4 0 -0.5 0.7 -22.5 1.5 -48.9 1.7 -54.5 1.9 -125.2 0.5 -139.7 -0.5 -5.4 -1.7 -11.2 -2.5 -12.8 -2.1 -4 -6.8 -6.8 -12.5 -7.5 -11.8 -1.5 -11 -1 -11 -6.5 0 -2.7 0.3 -5.1 0.8 -5.4 0.4 -0.2 26.4 -0.5 57.7 -0.7 61.9 -0.2 64.1 0 78.7 5.4 18.8 7.1 30.2 20.6 32.8 38.7 3.8 26.7 -13.9 50.1 -42.8 56.6 -4 0.9 -7 2 -6.7 2.4 0.2 0.4 2.8 1 5.6 1.4 6.2 0.8 22.4 6.5 28.3 10 12.8 7.5 21.9 18.2 25.6 30.4 2.5 8 2.7 22.8 0.4 31.6 -5.7 22.2 -24.3 37.6 -52.9 43.8 -10.5 2.3 -42.3 3.1 -68.5 1.8z m42.3 -14.6 c16 -3.6 28.1 -12.4 34.2 -24.7 4.3 -9 5.6 -16.6 4.4 -27.8 -2.2 -22.3 -12.5 -34.1 -34.7 -40.1 -8.3 -2.2 -39.7 -3.9 -41.1 -2.2 -0.4 0.5 -0.4 20.8 0 45.2 0.8 49.3 0.6 48.1 7.6 50 6 1.6 21.7 1.4 29.6 -0.4z m1.1 -112.8 c17.3 -5.9 25.1 -15.2 27.6 -32.7 1.2 -8.2 -0.4 -19.8 -3.6 -26.5 -4.9 -10.3 -17 -18.9 -29.9 -21.3 -7.7 -1.4 -22.1 -1.3 -26.5 0.2 -5.7 1.9 -5.9 3.9 -6 45.4 -0.1 20.2 -0.1 37.2 -0.1 37.7 0.1 0.5 6.8 0.7 15.4 0.4 13 -0.4 16.3 -0.9 23.1 -3.2z"/>
  <path d="M264.6 239.1 c-0.2 -0.3 0.2 -18.4 1 -40.1 1.5 -46.5 1.8 -142.5 0.4 -152.3 -1.8 -12.4 -4.4 -14.8 -18 -17 l-7.5 -1.2 0 -5 0 -5 45 0 45 0 0 5.5 c0 4 -0.4 5.4 -1.3 5.2 -2.7 -0.5 -14 2 -17 3.8 -4.8 2.9 -6.2 6.9 -7.3 19.8 -1.5 19.4 -0.6 118.8 1.6 169.3 l0.7 17.6 -21.1 -0.1 c-11.7 0 -21.4 -0.2 -21.5 -0.5z"/>
 </g>
</svg>