<?xml version="1.0" standalone="no"?>
<!DOCTYPE svg PUBLIC "-//W3C//DTD SVG 20010904//EN"
 "http://www.w3.org/TR/2001/REC-SVG-20010904/DTD/svg10.dtd">
<svg version="1.0" xmlns="http://www.w3.org/2000/svg"
 width="1552.000000pt" height="831.000000pt" viewBox="0 0 1552.000000 831.000000"
 preserveAspectRatio="xMidYMid meet">

<g transform="translate(0.000000,831.000000) scale(0.100000,-0.100000)"
fill="#000000" stroke="none">
<path d="M2921 8020 c-727 -41 -1370 -171 -1780 -358 -341 -156 -502 -345
-450 -529 l13 -48 13 65 c19 95 58 165 132 240 469 476 2089 732 3576 564 33
-4 58 -4 55 -1 -8 8 -233 35 -435 53 -214 18 -900 26 -1124 14z"/>
<path d="M4503 7943 c9 -2 25 -2 35 0 9 3 1 5 -18 5 -19 0 -27 -2 -17 -5z"/>
<path d="M4578 7933 c6 -2 18 -2 25 0 6 3 1 5 -13 5 -14 0 -19 -2 -12 -5z"/>
<path d="M4648 7923 c6 -2 18 -2 25 0 6 3 1 5 -13 5 -14 0 -19 -2 -12 -5z"/>
<path d="M4718 7913 c7 -3 16 -2 19 1 4 3 -2 6 -13 5 -11 0 -14 -3 -6 -6z"/>
<path d="M6651 7064 c-37 -200 -227 -394 -546 -555 -60 -31 -150 -71 -199 -90
-102 -39 -107 -44 -195 -203 -201 -363 -310 -753 -327 -1176 -7 -165 7 -395
31 -510 13 -60 14 -61 10 -15 -14 149 -17 432 -6 555 31 351 126 684 282 991
76 149 128 229 172 264 19 16 97 56 173 89 319 142 527 301 602 465 28 60 40
165 25 220 -9 34 -9 33 -22 -35z"/>
<path d="M5146 6771 c-53 -58 -282 -142 -510 -186 -139 -27 -428 -66 -636 -85
-192 -18 -903 -24 -1136 -11 -172 10 -438 36 -584 57 -25 4 -43 4 -40 1 12
-13 391 -60 640 -79 215 -16 925 -16 1140 0 474 36 815 96 1036 181 94 36 137
71 132 109 -4 33 -20 38 -42 13z"/>
<path d="M14055 6589 c-600 -71 -997 -531 -1096 -1269 -20 -150 -15 -469 10
-634 11 -76 23 -142 27 -145 4 -3 4 18 0 47 -29 227 -29 448 0 672 85 657 452
1132 978 1265 130 33 297 46 437 35 62 -5 115 -8 117 -6 1 2 -37 11 -85 19
-115 21 -288 28 -388 16z"/>
<path d="M2188 6553 c6 -2 18 -2 25 0 6 3 1 5 -13 5 -14 0 -19 -2 -12 -5z"/>
<path d="M8548 6550 c-138 -23 -205 -70 -232 -160 -34 -115 -40 -266 -39 -990
1 -388 6 -874 12 -1080 14 -465 29 -894 37 -1022 l6 -98 -284 0 c-251 -1 -281
-2 -264 -15 28 -21 522 -22 551 -1 18 13 18 26 7 342 -28 754 -34 1065 -35
1754 -2 744 4 886 39 1009 16 56 49 115 80 143 38 33 125 69 210 86 110 22
124 42 27 41 -37 -1 -89 -5 -115 -9z"/>
<path d="M10214 6540 c-78 -9 -126 -29 -148 -63 -33 -50 -38 -132 -43 -709 -5
-528 -4 -578 11 -578 14 0 16 40 16 413 1 610 12 741 75 822 55 73 207 104
414 85 63 -5 116 -8 118 -6 2 2 -36 11 -84 19 -112 20 -268 28 -359 17z"/>
<path d="M7408 6533 c7 -3 16 -2 19 1 4 3 -2 6 -13 5 -11 0 -14 -3 -6 -6z"/>
<path d="M9178 6533 c7 -3 16 -2 19 1 4 3 -2 6 -13 5 -11 0 -14 -3 -6 -6z"/>
<path d="M15210 6201 c0 -262 -3 -340 -12 -344 -9 -3 -7 -7 6 -12 11 -5 21 -3
27 6 10 16 13 648 3 673 -19 50 -24 -15 -24 -323z"/>
<path d="M11841 5932 c-1 -124 -23 -218 -78 -332 -40 -82 -58 -107 -142 -190
-143 -142 -306 -225 -537 -273 -57 -12 -104 -24 -104 -28 0 -3 30 -10 66 -16
63 -9 74 -7 190 27 214 64 341 136 456 258 78 83 141 201 163 307 18 85 18
222 0 290 l-13 50 -1 -93z"/>
<path d="M3194 5571 c-2 -2 -4 -271 -4 -598 l0 -593 -615 0 -615 0 2 -287 c4
-353 20 -389 28 -61 6 239 11 263 59 295 24 17 72 18 583 23 438 4 560 8 570
18 10 10 14 128 18 550 5 492 7 540 23 565 38 59 51 62 299 65 125 2 228 8
228 13 0 8 -568 18 -576 10z"/>
<path d="M10079 4953 l-57 -4 4 -302 c12 -828 27 -1188 49 -1166 2 3 0 146 -5
319 -16 549 -15 1011 1 1044 24 51 59 67 159 79 83 9 326 0 480 -18 21 -3 13
1 -20 10 -115 30 -450 51 -611 38z"/>
<path d="M10758 4893 c7 -3 16 -2 19 1 4 3 -2 6 -13 5 -11 0 -14 -3 -6 -6z"/>
<path d="M13002 4510 c0 -14 2 -19 5 -12 2 6 2 18 0 25 -3 6 -5 1 -5 -13z"/>
<path d="M5432 4440 c0 -14 2 -19 5 -12 2 6 2 18 0 25 -3 6 -5 1 -5 -13z"/>
<path d="M3968 4368 c19 -19 1023 -19 1029 0 4 9 -104 12 -518 12 -418 0 -521
-3 -511 -12z"/>
<path d="M12041 4175 c-2 -190 -47 -342 -142 -485 -178 -266 -485 -424 -954
-492 -105 -15 -630 -17 -1115 -5 -271 7 -313 6 -298 -6 21 -17 530 -32 1078
-32 325 0 367 2 495 24 334 55 566 160 736 330 164 165 239 367 226 611 -9
159 -25 193 -26 55z"/>
<path d="M2680 3619 c-36 -14 -88 -68 -112 -114 -27 -52 -35 -149 -16 -195
l15 -35 7 54 c11 80 52 156 115 212 30 27 59 49 63 49 18 0 6 28 -14 34 -28 7
-27 7 -58 -5z"/>
<path d="M3190 3590 c1 -19 8 -46 16 -60 15 -24 15 -23 11 23 -6 59 -27 89
-27 37z"/>
<path d="M3947 3403 c-9 -9 -9 -53 1 -52 4 0 38 8 76 18 62 16 67 20 49 30
-23 12 -115 15 -126 4z"/>
<path d="M15210 3317 l0 -65 -107 -26 c-131 -31 -241 -51 -393 -71 -151 -21
-602 -31 -740 -16 -219 22 -212 22 -140 6 261 -56 696 -60 1050 -9 171 25 303
54 330 73 23 17 25 25 25 91 0 50 -4 75 -12 78 -10 3 -13 -14 -13 -61z"/>
<path d="M13738 3163 c7 -3 16 -2 19 1 4 3 -2 6 -13 5 -11 0 -14 -3 -6 -6z"/>
<path d="M3190 3071 c0 -10 7 -24 15 -31 16 -13 18 -8 9 28 -8 27 -24 29 -24
3z"/>
<path d="M2700 2946 c-93 -49 -163 -151 -203 -294 -18 -68 -21 -101 -20 -282
1 -158 6 -229 22 -310 19 -102 19 -103 13 -30 -4 41 -7 161 -6 265 1 162 4
202 22 270 43 157 108 256 222 334 30 20 55 44 55 52 0 23 -56 21 -105 -5z"/>
<path d="M3890 2864 l-35 -15 28 -16 c24 -12 34 -12 58 -2 19 7 29 18 27 28
-4 22 -36 24 -78 5z"/>
<path d="M3356 2826 c-7 -28 3 -86 14 -86 11 0 30 57 30 86 0 33 -36 33 -44 0z"/>
<path d="M6086 2682 c18 -166 25 -327 20 -456 -28 -647 -254 -1206 -683 -1691
-82 -93 -98 -120 -87 -148 9 -23 29 -10 102 65 307 316 548 777 640 1223 65
314 72 724 17 985 -9 39 -12 48 -9 22z"/>
<path d="M1772 2119 c-60 -30 -95 -85 -100 -157 -2 -32 2 -70 8 -87 l12 -30
12 51 c28 118 132 212 236 214 l35 1 -25 14 c-38 22 -127 19 -178 -6z"/>
<path d="M11934 2013 c-12 -95 4 -715 19 -730 9 -10 12 67 11 384 0 282 -3
398 -11 400 -7 3 -14 -18 -19 -54z"/>
<path d="M12914 2055 c-3 -8 -4 -146 -2 -307 3 -229 7 -300 18 -326 14 -30 15
0 15 302 0 265 -3 337 -13 341 -7 2 -15 -2 -18 -10z"/>
<path d="M14205 2020 c-7 -50 -1 -399 11 -697 l6 -141 -24 -4 c-20 -4 -21 -6
-5 -12 45 -21 45 -25 41 450 -1 277 -6 450 -12 452 -6 2 -13 -20 -17 -48z"/>
<path d="M2521 1934 c0 -11 3 -14 6 -6 3 7 2 16 -1 19 -3 4 -6 -2 -5 -13z"/>
<path d="M4885 1661 c-47 -22 -99 -74 -114 -114 -15 -38 -13 -105 3 -142 l13
-30 8 40 c22 117 94 192 215 225 l45 13 -30 13 c-42 18 -93 17 -140 -5z"/>
<path d="M1843 1561 c-104 -75 -164 -211 -162 -364 0 -34 6 -80 14 -102 l13
-40 1 60 c3 144 58 275 157 372 35 35 64 67 64 71 0 5 -11 14 -24 20 -21 9
-30 7 -63 -17z"/>
<path d="M8300 1438 c0 -15 -5 -39 -11 -55 -6 -15 -7 -43 -4 -62 6 -31 8 -33
23 -17 19 19 22 110 4 141 -11 19 -11 18 -12 -7z"/>
<path d="M15300 1438 c0 -15 -5 -39 -11 -55 -6 -15 -7 -43 -4 -62 6 -31 8 -33
23 -17 19 19 22 110 4 141 -11 19 -11 18 -12 -7z"/>
<path d="M10740 1286 c0 -57 4 -96 10 -96 6 0 10 36 10 89 0 50 -4 93 -10 96
-6 4 -10 -28 -10 -89z"/>
<path d="M9483 1165 c11 -7 25 -11 33 -8 25 10 15 23 -18 23 -31 -1 -32 -2
-15 -15z"/>
<path d="M11912 1164 c11 -11 25 -14 42 -10 40 10 31 26 -16 26 -39 0 -41 -1
-26 -16z"/>
<path d="M4845 1122 c-81 -58 -133 -153 -161 -291 -13 -68 -15 -111 -9 -225
14 -267 13 -277 -18 -325 -22 -34 -26 -45 -16 -57 15 -19 33 -18 50 3 11 13
14 68 14 257 0 203 3 251 18 305 31 110 77 191 145 259 65 63 76 94 36 100
-11 2 -38 -10 -59 -26z"/>
<path d="M2807 870 c10 -206 -26 -432 -91 -565 -36 -72 -35 -89 4 -83 29 4 53
49 82 153 19 71 22 106 22 300 0 139 -4 235 -11 260 -10 34 -11 25 -6 -65z"/>
<path d="M1935 315 c0 -58 3 -105 7 -105 14 0 20 50 14 104 -13 104 -21 105
-21 1z"/>
<path d="M3482 328 c-8 -8 -9 -15 -1 -25 21 -25 69 -9 69 24 0 16 -52 17 -68
1z"/>
</g>
</svg>
